<?xml version="1.0" encoding="UTF-8"?>
<svg width="128px" height="20px" viewBox="0 0 128 20" version="1.1" xmlns="http://www.w3.org/2000/svg" xmlns:xlink="http://www.w3.org/1999/xlink">
    <title>Logo Group 8</title>
    <g id="Logo-Group-8" stroke="none" stroke-width="1" fill="none" fill-rule="evenodd">
        <path d="M6.86118776,3.55271368e-15 C9.98996111,3.55271368e-15 12.5143463,1.69561076 12.5143463,4.41415696 C12.5143463,6.27170807 11.4714218,7.64417088 11.0605275,7.64417088 C10.6765281,7.64417088 8.70050008,6.46002784 8.70050008,6.11050048 C8.70050008,5.97567231 9.08449948,5.35648861 9.08449948,4.7373049 C9.08449948,3.60665348 8.28811161,2.79915 6.91647173,2.79915 C5.57172674,2.79915 4.61098115,3.68725727 4.61098115,5.00622848 C4.61098115,6.40653624 6.14772584,7.2411519 8.15139587,8.23697516 C8.3084073,8.31623556 8.46593062,8.39574473 8.62342435,8.47575662 L9.09527527,8.71755431 C11.6055643,10.0178939 13.9696592,11.5119318 13.9696592,14.2397597 C13.9696592,17.7123177 10.8954227,20 6.80665088,20 C2.79931082,20 3.55271368e-15,18.0347329 3.55271368e-15,14.5086832 C3.55271368e-15,12.2473804 1.42767093,10.4975452 1.75638637,10.4975452 C2.19566973,10.4975452 4.08951893,11.790137 4.08951893,12.1396644 C4.08951893,12.3550964 3.43059388,13.0548839 3.43059388,14.2397597 C3.43059388,15.9895948 4.91280169,17.1737378 6.91647173,17.1737378 C9.00157354,17.1737378 10.3194236,15.9624826 10.3194236,14.3203634 C10.3194236,12.7588481 8.94703666,11.8707408 5.92808416,10.4440536 C3.29387814,9.20568623 1.04292445,7.88671503 1.04292445,4.92562468 C1.04292445,2.15358687 3.48587784,3.55271368e-15 6.86118776,3.55271368e-15 Z M93.3374049,3.55271368e-15 C96.6312831,3.55271368e-15 98.717132,2.20707848 98.717132,5.06045285 C98.717132,7.88671503 96.5491042,10.0666813 93.7497934,10.8206932 C93.5846886,10.8749176 93.3650469,10.9020298 93.2283312,10.9020298 C92.8712267,10.9020298 92.0203019,8.77482231 92.0203019,8.42529494 C92.0203019,8.31757896 92.1024808,8.23697516 92.2399436,8.18275079 C94.1606877,7.42873892 95.341075,6.43364842 95.341075,4.92562468 C95.341075,3.76859383 94.627613,2.93397816 93.282868,2.93397816 C90.4835572,2.93397816 88.4529923,6.56774383 88.4529923,10.4711658 C88.4529923,14.4544589 91.0871983,17.0660218 94.627613,17.0660218 C97.1873209,17.0660218 99.1551711,15.7885751 100.213311,14.0711462 C100.184667,13.7939385 100.171175,13.5090015 100.171175,13.2167509 C100.171175,9.4481571 102.64177,6.62116216 106.044722,6.62116216 C107.773467,6.62116216 108.980749,7.24107863 109.83242,7.99435773 L109.914599,7.96724555 L109.914599,7.61771818 C109.914599,7.21396644 110.188778,6.97142229 110.545882,6.97142229 L112.658626,6.97142229 C113.070268,6.97142229 113.317551,7.21396644 113.317551,7.67120979 C113.317551,8.18267751 113.015731,12.0860995 113.015731,14.2125742 C113.015731,15.4238294 113.509551,16.4196527 114.470297,16.4196527 C115.811512,16.4196527 116.951623,14.762887 117.599846,13.2741849 L117.599145,7.64439071 C117.599145,7.24063897 117.818039,6.9717154 118.230428,6.9717154 L120.426097,6.9717154 C120.864634,6.9717154 121.111917,7.21425954 121.111917,7.67150289 C121.111917,9.17879387 120.974455,13.0551037 120.974455,14.0780391 C120.974455,15.4505019 121.44138,16.4199458 122.566483,16.4199458 C124.075586,16.4199458 125.365794,14.4817909 125.859614,13.1093281 C125.914898,12.9744999 125.969435,12.8938961 126.133793,12.8938961 C126.381076,12.8938961 128,13.620063 128,13.9168315 C128,13.9974353 127.973105,14.1051513 127.945463,14.1857551 C127.176717,16.5005496 125.146152,19.3539239 121.797737,19.3539239 C119.978032,19.3539239 118.684136,18.5864913 118.047563,17.1721915 C117.022117,18.3648818 115.543353,19.3536308 113.564835,19.3536308 C111.588807,19.3536308 110.161136,18.4384114 110.161136,16.8776288 L110.161136,16.6079724 L110.052062,16.581593 C109.365495,18.0617718 107.82875,19.3536308 105.441081,19.3536308 C103.559244,19.3536308 102.061015,18.479286 101.150286,17.0139336 C99.651533,18.7048261 97.2690245,20 94.1606877,20 C88.589708,20 84.8027567,16.2585184 84.8027567,10.5246574 C84.8027567,4.71019272 88.2602455,3.55271368e-15 93.3374049,3.55271368e-15 Z M54.6143524,0.564886056 C55.0805306,0.564886056 55.3001723,0.833809628 55.3001723,1.29178574 C55.3001723,3.06873305 54.9438149,11.4398036 54.9438149,14.2396864 C54.9438149,15.477321 55.3823512,16.4196527 56.4805596,16.4196527 C57.8925768,16.4196527 59.0813073,14.5857168 59.6644508,13.2717359 L59.663571,7.64439071 C59.663571,7.24063897 59.8832126,6.9717154 60.294854,6.9717154 L62.4905238,6.9717154 C62.9298071,6.9717154 63.1763437,7.21425954 63.1763437,7.67150289 C63.1763437,9.17879387 63.039628,13.0551037 63.039628,14.0780391 C63.039628,15.4505019 63.5058062,16.4199458 64.6309095,16.4199458 C65.7993815,16.4199458 66.8358582,15.2591452 67.4740541,14.0980876 C67.4270084,13.7699048 67.4034749,13.4304494 67.4034749,13.0822159 C67.4034749,9.36711365 70.1475017,6.62145526 74.2370206,6.62145526 C78.1614348,6.62145526 80.7134619,9.36711365 80.7134619,12.8667839 C80.7134619,16.0704184 78.4079713,19.3539239 73.8522742,19.3539239 C71.5176513,19.3539239 69.6785024,18.4107541 68.5715446,16.8872633 C67.4969375,18.2650532 65.9313752,19.3539239 63.8629107,19.3539239 C62.0474373,19.3539239 60.7549826,18.5900566 60.1166193,17.1820482 C59.0428148,18.4110302 57.5322103,19.3536308 55.6565297,19.3536308 C53.3786811,19.3536308 51.7873996,18.304316 51.7873996,16.689309 L51.7873996,16.473877 L51.6775787,16.4467649 C50.9917588,17.873452 49.481909,19.3536308 47.1218815,19.3536308 C45.2176932,19.3536308 43.7353945,18.4897638 42.8237526,17.0688782 C41.7516201,18.3666513 40.2181556,19.3540705 38.2296806,19.3540705 C36.0063689,19.3540705 34.634729,18.1963069 34.634729,16.6084121 C34.634729,16.4735839 34.634729,16.258152 34.6616239,16.1775482 L34.551803,16.150436 C33.8114462,17.7390635 32.2739544,19.3540705 29.8041061,19.3540705 C28.0342625,19.3540705 26.8215376,18.5400324 26.2162325,17.1566401 C25.1330757,18.3872618 23.5472437,19.3539239 21.3519356,19.3539239 C18.359878,19.3539239 16.3293131,17.415769 16.3293131,14.5089031 L16.3293131,9.6902616 L15.6158512,9.6902616 C15.2042098,9.6902616 15.0122101,9.55543343 15.0122101,9.15168169 L15.0122101,7.64439071 C15.0122101,7.34835495 15.1489258,7.13292299 15.5060303,7.13292299 L16.3293131,7.13292299 L16.3293131,4.06411666 C16.3293131,3.60687331 16.5765968,3.33794973 16.9882382,3.33794973 L19.074087,3.33794973 C19.5126233,3.33794973 19.732265,3.60687331 19.732265,4.06411666 L19.732265,7.18714736 C20.6108317,7.16003517 21.6530091,7.13292299 22.3119341,7.13292299 C22.5592178,7.13292299 22.7512175,7.26775115 22.7512175,7.56378691 L22.7512175,9.20590606 C22.7512175,9.58254561 22.5868598,9.6902616 22.2850392,9.6902616 C21.6530091,9.6902616 20.6384737,9.66314941 19.732265,9.66314941 L19.732265,13.1628197 C19.732265,15.2086906 20.2813692,16.4199458 22.0653976,16.4199458 C23.9983095,16.4199458 25.2417176,14.5145996 25.7701067,13.2203286 L25.7698712,7.67091668 C25.7698712,7.18656115 26.0171548,6.97112919 26.4556911,6.97112919 L28.596824,6.97112919 C29.0630022,6.97112919 29.2826439,7.24078552 29.2826439,7.64453726 C29.2826439,9.31376859 29.1459282,12.0858064 29.1459282,13.8898659 C29.1459282,15.5854767 29.5568225,16.4200923 30.7924937,16.4200923 C32.7132378,16.4200923 34.3598033,12.6514985 34.3598033,8.58613615 L34.3598033,7.67091668 C34.3598033,7.24078552 34.551803,6.97112919 35.0187284,6.97112919 L37.1867561,6.97112919 C37.6529344,6.97112919 37.8725761,7.21367333 37.8725761,7.67091668 C37.8725761,8.14764139 37.7548847,9.87182637 37.6737182,11.6249381 L37.6494807,12.1780926 C37.6192625,12.9131241 37.5983975,13.630544 37.5983975,14.2393933 C37.5983975,15.4235363 38.0922178,16.4200923 39.1082473,16.4200923 C40.2412623,16.4200923 41.219728,15.2363076 41.8460392,14.122506 C41.8136054,13.8205172 41.7974384,13.5090437 41.7974384,13.1896387 C41.7974384,9.66358907 44.075287,6.62116216 47.7531646,6.62116216 C49.454267,6.62116216 50.9917588,7.42866564 51.8419364,8.07496153 L51.9517573,8.04858211 L51.9517573,1.26467355 C51.9517573,0.807430204 52.171399,0.564886056 52.5830403,0.564886056 L54.6143524,0.564886056 Z M74.1817367,9.31362204 C72.1235298,9.31362204 70.9707845,11.1711732 70.9707845,13.0551037 C70.9707845,15.1009746 72.1780666,16.6624899 74.0442739,16.6624899 C76.0479439,16.6624899 77.1185103,14.8855426 77.1185103,12.7590679 C77.1185103,10.8480252 76.1301228,9.31362204 74.1817367,9.31362204 Z M48.8506259,9.55587309 C46.8469559,9.55587309 45.3378532,11.1437679 45.3378532,13.3779585 C45.3378532,15.2355096 46.3531356,16.4196527 47.8353434,16.4196527 C50.2506549,16.4196527 51.5401159,12.9470946 51.5401159,10.7400161 C50.9641168,10.2014362 49.9757292,9.55587309 48.8506259,9.55587309 Z M107.225109,9.55587309 C105.221439,9.55587309 103.712337,11.1437679 103.712337,13.4050707 C103.712337,15.2083974 104.727619,16.4196527 106.154543,16.4196527 C108.734212,16.4196527 109.914599,12.785887 109.914599,10.7400161 C109.337853,10.2014362 108.350213,9.55587309 107.225109,9.55587309 Z M61.4752413,1.21074229 C62.4905238,1.21074229 63.3414485,1.77643438 63.3414485,2.93346523 C63.3414485,4.03773723 62.6003446,4.81812853 61.3654204,4.81812853 C60.294854,4.81812853 59.5544972,4.09122884 59.5544972,2.96057742 C59.5544972,1.93764197 60.3493909,1.21074229 61.4752413,1.21074229 Z M119.410068,1.21074229 C120.426097,1.21074229 121.276275,1.77643438 121.276275,2.93346523 C121.276275,4.03773723 120.535918,4.81812853 119.300247,4.81812853 C118.230428,4.81812853 117.489324,4.09122884 117.489324,2.96057742 C117.489324,1.93764197 118.284965,1.21074229 119.410068,1.21074229 Z" id="Combined-Shape" fill="#FFFFFF"></path>
    </g>
</svg>