<?xml version="1.0" encoding="UTF-8"?>
<svg width="128px" height="128px" viewBox="0 0 128 128" version="1.1" xmlns="http://www.w3.org/2000/svg" xmlns:xlink="http://www.w3.org/1999/xlink">
    <title>Aperture Icon Dark</title>
    <g id="Aperture-Icon-Dark" stroke="none" stroke-width="1" fill="none" fill-rule="evenodd">
        <path d="M37.1140169,84.7644444 L96.1874445,119.087407 C86.7205491,124.776296 75.7389504,128 64,128 C54.3437666,128 45.255547,125.914074 37.1140169,121.931852 L37.1140169,84.7644444 Z M32.3786758,51.1981037 L32.3786758,119.46477 C14.5809124,109.60403 2.27394829,91.2099556 0.380569197,69.7818074 L32.3786758,51.1981037 Z M128,63.5221333 L128,64.0910222 C128,85.7088 117.207739,104.861393 100.735341,116.23917 L68.7372345,97.8450963 L128,63.5221333 Z M95.6232176,8.53333333 C113.420981,18.3940741 125.727945,36.7881481 127.621324,58.2162963 L95.6232176,76.8 L95.6232176,8.53333333 Z M27.2646589,11.757037 L59.2627655,30.1511111 L0,64.2844444 L0,64.0948148 C0,42.2874074 10.7922608,23.1348148 27.2646589,11.757037 Z M64.0037868,0 C73.6600201,0 82.7482397,2.08592593 90.8897698,6.06814815 L90.8897698,43.0459259 L31.8163422,8.72296296 C41.2832377,3.2237037 52.2648364,0 64.0037868,0 Z" id="Combined-Shape" fill="#000000"></path>
    </g>
</svg>