<?xml version="1.0" encoding="UTF-8"?>
<svg width="128px" height="32px" viewBox="0 0 128 32" version="1.1" xmlns="http://www.w3.org/2000/svg" xmlns:xlink="http://www.w3.org/1999/xlink">
    <title>Logo Group 2</title>
    <g id="Logo-Group-2" stroke="none" stroke-width="1" fill="none" fill-rule="evenodd">
        <path d="M9.59603692,16.8170329 L9.59603692,20.0785947 L4.1247945,20.0785947 C3.99062887,20.0785947 3.90118512,20.1915597 3.90118512,20.3261562 L3.90118512,20.3261562 L3.90118512,22.5526068 C3.90118512,22.643139 3.99062887,22.7553027 4.1247945,22.7553027 L4.1247945,22.7553027 L8.02597962,22.7553027 C9.07933953,22.7553027 9.79728537,23.4747531 9.79728537,24.5322972 L9.79728537,24.5322972 L9.79728537,30.2222044 C9.79728537,31.2797484 9.07933953,32 8.02597962,32 L8.02597962,32 L0,32 L0,28.7152042 L5.67249087,28.7152042 C5.82901744,28.7152042 5.91846119,28.6262744 5.91846119,28.5133094 L5.91846119,28.5133094 L5.91846119,26.3092916 C5.91846119,26.1963266 5.82901744,26.1065956 5.67249087,26.1065956 L5.67249087,26.1065956 L1.77130575,26.1065956 C0.717945838,26.1065956 0,25.3871452 0,24.3296012 L0,24.3296012 L0,18.5940273 C0,17.5372844 0.717945838,16.8170329 1.77130575,16.8170329 L1.77130575,16.8170329 L9.59603692,16.8170329 Z M23.0485371,16.8174335 L23.0485371,20.1014281 L19.6177303,20.1014281 L19.6177303,31.9995994 L15.7165452,31.9995994 L15.7165452,20.1014281 L12.286537,20.1014281 L12.286537,16.8174335 L23.0485371,16.8174335 Z M35.3571954,16.8170329 C36.4105553,16.8170329 37.1285011,17.5372844 37.1285011,18.5940273 L37.1285011,18.5940273 L37.1285011,30.2222044 C37.1285011,31.2797484 36.4105553,32 35.3571954,32 L35.3571954,32 L27.5771861,32 C26.5230276,32 25.8058804,31.2797484 25.8058804,30.2222044 L25.8058804,30.2222044 L25.8058804,18.5940273 C25.8058804,17.5372844 26.5230276,16.8170329 27.5771861,16.8170329 L27.5771861,16.8170329 Z M50.4909187,16.8173533 C51.4556334,16.8173533 52.263023,17.6049032 52.263023,18.5270495 L52.263023,18.5270495 L52.263023,22.4407635 L48.3618379,22.4407635 L48.3618379,20.3256755 C48.3618379,20.191079 48.2492346,20.0789152 48.1597909,20.0789152 L48.1597909,20.0789152 L45.3127643,20.0789152 C45.1778,20.0789152 45.0659953,20.191079 45.0659953,20.3256755 L45.0659953,20.3256755 L45.0659953,28.4911971 C45.0659953,28.6257937 45.1778,28.7155247 45.3127643,28.7155247 L45.3127643,28.7155247 L48.1597909,28.7155247 C48.2492346,28.7155247 48.3618379,28.6257937 48.3618379,28.4911971 L48.3618379,28.4911971 L48.3618379,26.3312436 L52.263023,26.3312436 L52.263023,30.2673904 C52.263023,31.2576361 51.4556334,31.9995193 50.4909187,31.9995193 L50.4909187,31.9995193 L42.8905955,31.9995193 C41.9266793,31.9995193 41.1640116,31.2576361 41.1640116,30.2673904 L41.1640116,30.2673904 L41.1640116,18.5270495 C41.1640116,17.6049032 41.9266793,16.8173533 42.8905955,16.8173533 L42.8905955,16.8173533 Z M55.1185947,5.32907052e-15 C55.4052939,5.32907052e-15 55.6864028,0.0288421095 55.9627201,0.0785146314 L55.9627201,0.0785146314 L55.9627201,0.0745087828 L56.0226155,0.0881286679 C56.0529625,0.0937368558 56.0825109,0.101748553 56.1128579,0.108157911 C56.2174751,0.130590662 56.3212937,0.156228093 56.4235152,0.185871372 C56.4706329,0.199491257 56.5169519,0.213111142 56.5640696,0.228333367 C56.6527148,0.257175476 56.7397627,0.289222265 56.8276093,0.322871392 C56.8731298,0.340497126 56.9186502,0.35652052 56.9641707,0.375748593 C57.0831628,0.427023454 57.2005578,0.481502994 57.3147583,0.542391892 C57.3642718,0.568830493 57.4113895,0.598473772 57.460903,0.626514711 C57.5311802,0.666573197 57.6014575,0.708234022 57.6693389,0.752298356 C57.7244426,0.787549823 57.7771505,0.825204799 57.8314557,0.862058606 C57.8921497,0.90532177 57.9512464,0.950187273 58.0103432,0.996655116 C58.0630511,1.0367136 58.1149604,1.07757326 58.1652725,1.12003525 C58.2299595,1.17531596 58.2914521,1.23300018 58.3537433,1.29228674 C58.3896805,1.32593587 58.4280136,1.35638032 58.4631522,1.39243295 C59.3863395,2.31698279 59.8479331,3.53235724 59.8479331,4.74853286 L59.8479331,4.74853286 L59.8519262,4.74853286 L59.8639052,23.1377812 L63.7874513,16.8173533 L68.1366538,16.8173533 L63.7642918,23.4077754 L68.3163399,31.9995193 L64.0565812,31.9995193 L61.0969513,26.1966471 L59.8639052,28.1987702 L59.8639052,31.9995193 L55.9627201,31.9995193 L55.9627201,4.74853286 C55.9619215,4.53221704 55.8788666,4.31429888 55.714354,4.14925792 C55.4995293,3.9329421 55.2479687,3.90169648 55.1185947,3.90169648 C54.9860263,3.90169648 54.7376601,3.9329421 54.5220368,4.14925792 L54.5220368,4.14925792 L53.812077,4.86470247 L51.060883,7.62152743 L48.3120848,4.86470247 L47.5989306,4.14925792 C47.3841059,3.9329421 47.1325453,3.90169648 47.0023727,3.90169648 C46.8729987,3.90169648 46.6222368,3.9329421 46.4066134,4.14925792 C46.0775882,4.47933984 46.0775882,5.01772588 46.4066134,5.34540429 L46.4066134,5.34540429 L47.1197677,6.06084884 L49.8677672,8.81847497 L51.060883,10.0146213 L52.2532002,8.81847497 L54.6665843,6.39974363 L54.6665843,11.9157971 L51.060883,15.5338795 L43.6554194,8.10543393 C41.8122392,6.25312957 41.8122392,3.24153264 43.6554194,1.39243295 C44.549857,0.49432171 45.7373825,5.32907052e-15 47.0023727,5.32907052e-15 C48.2657657,5.32907052e-15 49.4556871,0.49432171 50.3509232,1.39243295 L50.3509232,1.39243295 L51.060883,2.10467282 L51.7708428,1.39243295 C52.6652803,0.49432171 53.8528059,5.32907052e-15 55.1185947,5.32907052e-15 Z M74.7951822,16.8174335 L74.7951822,22.6203056 L78.4951188,22.6203056 L78.4951188,16.8174335 L82.396304,16.8174335 L82.396304,31.9995994 L78.4951188,31.9995994 L78.4951188,25.9715985 L74.7951822,25.9715985 L74.7951822,31.9995994 L70.893997,31.9995994 L70.893997,16.8174335 L74.7951822,16.8174335 Z M96.1174548,16.8170329 C97.1708147,16.8170329 97.8887606,17.5372844 97.8887606,18.5940273 L97.8887606,18.5940273 L97.8887606,30.2222044 C97.8887606,31.2797484 97.1708147,32 96.1174548,32 L96.1174548,32 L88.3382441,32 C87.2840856,32 86.5669384,31.2797484 86.5669384,30.2222044 L86.5669384,30.2222044 L86.5669384,18.5940273 C86.5669384,17.5372844 87.2840856,16.8170329 88.3382441,16.8170329 L88.3382441,16.8170329 Z M105.938539,16.8173533 L105.938539,28.7155247 L110.758918,28.7155247 L110.758918,31.9995193 L102.059714,31.9995193 L102.059714,16.8173533 L105.938539,16.8173533 Z M118.023029,16.8173533 L121.072102,23.9020971 L123.875206,16.8173533 L128,16.8173533 L128,31.9995193 L124.323223,31.9995193 L124.323223,23.2499449 L121.766888,29.2779458 L120.242352,29.2779458 L117.665254,23.4077754 L117.665254,31.9995193 L114.077122,31.9995193 L114.077122,16.8173533 L118.023029,16.8173533 Z M32.9805471,20.1010275 L29.9091125,20.1010275 C29.8188702,20.1010275 29.7070655,20.2139924 29.7070655,20.3485889 L29.7070655,20.3485889 L29.7070655,28.5133094 C29.7070655,28.6262744 29.8188702,28.7152042 29.9091125,28.7152042 L29.9091125,28.7152042 L32.9805471,28.7152042 C33.1147127,28.7152042 33.227316,28.6262744 33.227316,28.5133094 L33.227316,28.5133094 L33.227316,20.3485889 C33.227316,20.2139924 33.1147127,20.1010275 32.9805471,20.1010275 L32.9805471,20.1010275 Z M93.7408065,20.1010275 L90.6693719,20.1010275 C90.5799282,20.1010275 90.4681235,20.2139924 90.4681235,20.3485889 L90.4681235,20.3485889 L90.4681235,28.5133094 C90.4681235,28.6262744 90.5799282,28.7152042 90.6693719,28.7152042 L90.6693719,28.7152042 L93.7408065,28.7152042 C93.8749722,28.7152042 93.9875755,28.6262744 93.9875755,28.5133094 L93.9875755,28.5133094 L93.9875755,20.3485889 C93.9875755,20.2139924 93.8749722,20.1010275 93.7408065,20.1010275 L93.7408065,20.1010275 Z" id="Combined-Shape" fill="#FFFFFF"></path>
    </g>
</svg>