<?xml version="1.0" encoding="UTF-8"?>
<svg width="128px" height="36px" viewBox="0 0 128 36" version="1.1" xmlns="http://www.w3.org/2000/svg" xmlns:xlink="http://www.w3.org/1999/xlink">
    <title>Logo Group 6</title>
    <g id="Logo-Group-6" stroke="none" stroke-width="1" fill="none" fill-rule="evenodd">
        <path d="M52.9923694,0.021613095 C53.0510307,0.0809431597 53.0654835,0.168243112 53.0357278,0.286055669 C53.0068222,0.549650671 52.9481608,0.960723262 52.8597437,1.5175783 C56.567311,1.45909581 59.4357659,1.59131709 61.4659587,1.91339459 C61.6716985,1.94305962 61.7150568,2.06087218 61.5985843,2.26598468 C61.2746717,2.82368729 60.6855077,3.08728229 59.8327927,3.05761726 C57.6852773,2.96946974 55.3014161,3.0135435 52.6829095,3.18983855 C52.2416742,8.17695427 52.0214816,13.8234813 52.0214816,20.1294196 C52.0214816,25.4691254 52.2119184,29.7078347 52.5944924,32.8455476 C55.8608243,32.7574001 56.2238445,32.8421573 58.1656202,33.1650824 C58.4011157,33.1938998 58.4597771,33.3117124 58.3424544,33.5168249 C58.0185417,34.0736799 57.4446807,34.3525312 56.6208714,34.3525312 C53.972609,34.3237138 53.3876959,34.4720389 50.3883156,34.7814028 C48.2782074,35.0000765 46.2913731,35.280623 44.2033691,35.9561381 C44.0265349,36.0146206 43.9092122,36.0146206 43.8497007,35.9561381 C43.8207951,35.8976556 43.8207951,35.7798431 43.8497007,35.6043956 C44.1438576,34.4305079 44.7032658,33.7261753 45.5270752,33.4922453 C47.350678,32.9642077 48.6488791,32.9608174 50.9613265,32.8896214 C50.6969253,32.5666963 50.5353941,32.1861363 50.4767327,31.7453987 C50.240387,29.6629134 50.1239145,26.7735393 50.1239145,23.0781238 C50.1239145,14.9821127 50.4911855,8.39647551 51.2265778,3.32205984 C48.2841586,3.55683738 45.6069907,3.99672743 43.1942239,4.64172999 C42.9884841,4.70106005 42.8558584,4.70106005 42.7971971,4.64172999 C42.70878,4.5832475 42.6943272,4.46628251 42.7529885,4.28998746 C43.0462953,3.17542982 43.5912507,2.51517096 44.3861545,2.31005845 C45.856939,1.92865089 48.23995,1.66505589 51.5360377,1.5175783 C51.7706831,0.755610752 52.1830128,0.257238209 52.7713266,0.021613095 C52.8886493,-0.007204365 52.9626136,-0.007204365 52.9923694,0.021613095 Z M11.4751827,0.814432274 C13.9755164,0.784767241 15.8297251,1.97306368 17.0361085,4.37847402 C17.948335,6.16685168 18.3453618,8.11796324 18.2280391,10.2301135 C18.0801104,12.7533364 17.2860568,14.2196366 15.8450281,14.6298616 C15.6681939,14.6891917 15.550021,14.7027528 15.4922098,14.6739354 C15.4326983,14.6154529 15.4326983,14.4840792 15.4922098,14.2789667 C15.7855165,13.1101644 15.9334452,11.8379583 15.9334452,10.4640435 C15.9334452,8.18492145 15.550021,6.24059048 14.7857231,4.63274572 C13.9619138,2.87911852 12.888156,2.03154617 11.5635998,2.08918109 C9.6804855,2.14935873 7.73870985,3.78856366 5.73742269,7.01018617 C3.5312459,10.6428813 2.38352387,14.7875101 2.29595693,19.4440726 C2.23644541,23.2225501 2.91317633,26.2772009 4.32529951,28.6054821 C5.73742269,30.9337634 7.65029275,32.0686628 10.0630595,32.0093327 C12.0048352,31.9796677 13.7043139,31.1371808 15.1606457,29.4801768 C16.6126431,27.8281044 18.3857829,25.2509288 18.4241301,21.8830544 C18.5351241,16.1550987 18.9821521,11.5814913 19.7634361,8.1614437 C19.9691759,7.25284614 20.3662027,6.69514353 20.9553667,6.49003102 C21.1322009,6.43070095 21.2350708,6.43070095 21.2648265,6.49003102 C21.2648265,6.51969605 21.2495236,6.606996 21.220618,6.75362602 C20.4843756,10.8609616 20.1171045,16.5218974 20.1171045,23.7372808 L20.1171045,23.7372808 L20.1171045,27.3894701 C20.7394249,24.3687222 21.6150943,21.8454993 22.7432626,19.8214966 C23.0102142,19.323124 23.3213744,19.0739377 23.6775933,19.0739377 C23.9147892,19.0739377 24.182591,19.1917503 24.4784482,19.4256803 C25.071863,19.8952353 25.3694206,20.7173805 25.3694206,21.8904207 C25.3099091,27.0818013 25.7069359,29.8092892 26.560501,30.0737317 C26.9141694,30.1915443 27.2958933,29.8753998 27.7082231,29.127841 C27.9190638,28.7438907 28.0899469,28.3150191 28.2242729,27.8420737 C28.1843152,27.4665992 28.1579601,27.0682402 28.1494584,26.6419113 C28.1197027,24.559426 28.3543481,22.7405357 28.8550949,21.186088 C29.0608347,20.5410855 29.4434087,20.1596779 30.002817,20.0418654 C30.1201397,20.0418654 30.2238597,20.1003479 30.3122768,20.2181604 C29.9288526,22.0362031 29.7384158,23.8695021 29.7384158,25.7172098 C29.7384158,28.8854353 30.0912341,30.5873606 30.7968706,30.8221381 C31.2092003,30.9687681 31.7022957,30.6017693 32.2761567,29.7219892 C32.8500178,28.8422091 33.2538459,27.7268039 33.4893414,26.3774687 C33.4969929,26.3401755 33.5054946,26.3071202 33.5139962,26.2774552 C33.2929534,24.9111685 33.1798816,23.3050189 33.1798816,21.449683 C33.1798816,18.8391602 33.4298299,15.9353773 33.9305768,12.7383344 C34.6659691,8.30892129 35.6368569,6.09421473 36.8432403,6.09421473 C37.2249641,6.09421473 37.5939355,6.32899227 37.9467538,6.79769978 C38.7416575,7.79529244 39.1378342,9.45314396 39.1378342,11.7695592 C39.1378342,14.057157 38.7705631,16.3896761 38.0351709,18.7654214 C37.2411172,21.2293142 36.2540763,22.989722 35.0782988,24.0466447 C35.3129442,28.5048753 36.0636395,30.7339906 37.3295343,30.7339906 C37.8872422,30.7339906 38.4764062,30.3152899 39.0944758,29.4804311 C39.6334801,28.7506713 40.0653636,27.8505495 40.4028789,26.7978646 C40.1206243,25.3239363 39.9760963,23.5474246 39.9760963,21.449683 C39.9760963,18.8391602 40.2260447,15.9353773 40.7267916,12.7383344 C41.4621838,8.30892129 42.4322215,6.09421473 43.639455,6.09421473 C44.022029,6.09421473 44.3901503,6.32899227 44.7429685,6.79769978 C45.5370221,7.79529244 45.9348991,9.45314396 45.9348991,11.7695592 C45.9348991,14.057157 45.5667779,16.3896761 44.8313856,18.7654214 C44.0364818,21.2293142 43.0511412,22.989722 41.8745136,24.0466447 C42.1100092,28.5048753 42.8598542,30.7339906 44.1248989,30.7339906 C44.683457,30.7339906 45.272621,30.3152899 45.8906905,29.4804311 C46.5087601,28.6430296 46.994204,27.5954302 47.3470223,26.3342425 C47.4354394,26.0697999 47.5238565,26.0409825 47.6114234,26.2452474 C47.7585019,26.50969 47.7882576,27.0377276 47.6998405,27.8293601 C47.6114234,28.8269528 47.3172665,29.7219892 46.8173698,30.5136218 C46.2282058,31.5103669 45.4630578,32.009587 44.5227759,32.009587 C44.2575246,32.009587 43.9922733,31.9655132 43.7278721,31.8782133 C42.4075667,31.506129 41.4400796,30.3542782 40.816909,28.4379171 C40.6783322,29.1931041 40.4164815,29.8864182 40.0211551,30.5136218 C39.4319911,31.5103669 38.6676932,32.009587 37.725711,32.009587 C37.4613098,32.009587 37.1969087,31.9655132 36.9316574,31.8782133 C35.5603421,31.4917203 34.56735,30.2661307 33.9484303,28.214158 C33.8702151,29.1651342 33.6296186,29.9830415 33.2249403,30.66788 C32.6952878,31.5629164 32.0330097,32.009587 31.2389561,32.009587 C31.0323661,32.009587 30.8121735,31.9655132 30.576678,31.8782133 C29.7324647,31.5764775 29.1101443,30.9238468 28.705466,29.9254066 C28.379853,30.7856925 27.8127933,31.2171068 27.0017364,31.2171068 C26.7959966,31.2171068 26.5894066,31.1738806 26.384517,31.0857331 C24.9128823,30.5873606 24.0448644,29.4575466 23.7804632,27.6979864 C23.603629,26.4952813 23.5152119,24.3534659 23.5152119,21.273388 C23.4557004,20.8640105 23.35028,20.8190892 23.2015012,21.1420143 C21.6788566,24.3983873 20.7836335,27.962429 20.5141313,31.8332919 C20.4852257,32.156217 20.3415479,32.2740296 20.0822478,32.185882 C19.1615197,31.8621094 18.6582223,31.1153982 18.5723557,29.942358 C18.5086838,29.1678379 18.4622886,28.3165478 18.4330371,27.3886202 C17.8904717,28.7877189 17.108971,30.0128659 16.2420549,30.9091838 C14.8299317,32.3763315 13.0488371,33.1679641 10.9021718,33.2857767 C8.07707531,33.4324067 5.6201,32.4204053 3.5312459,30.2497725 C1.20689624,27.8155447 0.0294184525,24.4566155 0.000512860565,20.1729848 C-0.0292428958,14.9231217 1.23580183,10.3326698 3.79649721,6.40162922 C6.14975246,2.73503122 8.70959768,0.872914766 11.4751827,0.814432274 Z M96.0933275,9.83336492 C96.2098,9.80454746 96.2837643,9.80454746 96.3135201,9.83336492 C96.3424257,9.86302995 96.3424257,9.95117748 96.3135201,10.0978075 C96.1069301,11.1538826 95.8867375,12.6498478 95.651242,14.5857031 C98.3284099,14.5272206 100.696968,14.6645273 102.757767,14.9959281 C102.903995,15.0264407 102.933751,15.1179785 102.845334,15.2688464 C102.551177,15.6934802 102.124394,15.8918121 101.565836,15.8621471 C99.5356434,15.7739995 97.5190533,15.7739995 95.5186163,15.8621471 C95.2542152,18.391303 95.0918338,20.805189 95.0340226,23.1012625 C94.9149995,28.1019394 95.4012936,30.6014303 96.4903543,30.6014303 C96.9315897,30.6014303 97.4017306,30.2496878 97.9024775,29.5453551 C98.3233089,28.9529021 98.6489219,28.1705928 98.8827171,27.2026651 C98.9201244,26.9238138 98.9592319,26.6373344 99.0051408,26.3339035 C99.3282033,24.2217532 99.5194903,22.7698617 99.5790018,21.9773816 C98.6667753,21.5086741 98.2399928,20.6729677 98.2986541,19.469415 C98.3284099,18.648965 98.5052441,17.9887061 98.8283066,17.4903336 C99.0935579,17.079261 99.3868646,16.8733009 99.7116275,16.8733009 C100.417264,16.8733009 100.770082,18.2370448 100.770082,20.9653802 C102.211111,21.0543753 103.506762,20.3203776 104.654484,18.7650824 C104.831318,18.5014874 105.051511,18.5014874 105.315912,18.7650824 C105.757147,19.235485 105.97819,19.6897838 105.97819,20.1296739 C105.97819,20.3356339 105.933981,20.5551552 105.845564,20.7899327 C104.786259,23.1071955 104.256607,25.5566796 104.256607,28.1375374 C104.256607,30.0733927 104.654484,31.0421679 105.448537,31.0421679 C106.461933,31.0421679 107.342704,29.8318346 108.089998,27.4204912 C108.072145,27.1696098 108.057692,26.9127954 108.052591,26.6415722 C108.022835,24.559087 108.258331,22.7410443 108.759078,21.185749 C108.963967,20.5407465 109.346541,20.1593389 109.90595,20.0415263 C110.023272,20.0415263 110.126992,20.1008564 110.215409,20.2178214 C109.831985,22.0367117 109.641548,23.8700107 109.641548,25.7177184 C109.641548,28.8859438 109.994367,30.5878691 110.700853,30.8217991 C111.112333,30.9692767 111.605428,30.6014303 112.179289,29.7216502 C112.527007,29.1885272 112.80416,28.5579333 113.027754,27.8527531 C112.890877,27.2967457 112.818613,26.703445 112.818613,26.0703085 C112.818613,25.5126059 112.877274,24.9413421 112.995447,24.3531269 C113.31851,22.5350842 113.862615,21.0976015 114.627763,20.0415263 C115.33425,19.1032637 116.098548,18.6337087 116.923207,18.6337087 C117.304931,18.6337087 117.673052,18.7515212 118.026721,18.9854512 C119.026514,19.6897838 119.527261,20.7017852 119.527261,22.0214554 C119.527261,22.491858 119.467749,22.9749742 119.350427,23.4733468 C119.05542,24.705717 118.460304,25.6880533 117.563381,26.422051 C116.665607,27.1552011 115.715974,27.551865 114.71618,27.6094999 C114.893014,29.2817601 115.348703,30.2496878 116.084095,30.5141303 C116.289835,30.6014303 116.52618,30.645504 116.790581,30.645504 C117.644147,30.645504 118.504513,30.2573159 119.373381,29.4800921 C119.996552,28.9206943 120.501549,28.2265325 120.890075,27.4009971 C120.856068,27.2662331 120.81441,27.101804 120.76255,26.9060148 C120.527054,25.9669047 120.601019,25.2930846 120.983593,24.8811645 C121.159577,24.705717 121.306655,25.0133858 121.424828,25.8058659 C122.189126,21.8451603 123.248431,19.235485 124.601893,17.9742974 C124.866294,17.7098548 125.145998,17.5776335 125.440155,17.5776335 C125.793823,17.5776335 126.131338,17.7539286 126.456101,18.1056711 C126.632085,18.3107836 126.60233,18.5014874 126.367684,18.6777824 C125.955354,19.0295249 125.749615,19.6016363 125.749615,20.3932689 C125.749615,21.6256391 126.205303,23.2690819 127.117529,25.3219021 C127.705843,26.7009023 128,27.8595337 128,28.7969487 C128,29.7657239 127.69139,30.5353196 127.074171,31.107431 C126.456101,31.6795423 125.764067,31.9660218 124.998919,31.9660218 C123.499229,31.9660218 122.291996,30.9531728 121.380619,28.9300176 C121.321108,29.0766476 121.203785,29.2376864 121.026951,29.4139814 C121.003997,29.4317804 120.984443,29.4411037 120.964039,29.4529697 C120.722592,29.8937074 120.430136,30.2861334 120.079018,30.6243147 C119.299417,31.371026 118.379539,31.745653 117.320234,31.745653 C116.790581,31.745653 116.260929,31.6430967 115.731277,31.4379842 C114.995884,31.1447242 114.363362,30.5726128 113.833709,29.7216502 C113.766546,29.6207891 113.706185,29.5156901 113.645823,29.4114387 C113.522549,29.8699753 113.351666,30.2903712 113.128073,30.6675409 C112.59842,31.5625773 111.936142,32.009248 111.142089,32.009248 C110.935499,32.009248 110.714456,31.9660218 110.479811,31.8778742 C109.504672,31.529522 108.82284,30.7167001 108.434315,29.438561 C107.94377,31.3871298 107.06555,32.3609905 105.802206,32.3609905 C104.654484,32.3609905 103.785616,31.7303967 103.197302,30.4700566 C102.726311,29.5012814 102.491665,28.40198 102.491665,27.1696098 C102.491665,25.5270146 102.830031,23.7233806 103.506762,21.7578604 C102.800275,22.081633 101.990918,22.2418242 101.078692,22.2418242 L101.078692,22.2418242 L100.725874,22.2418242 C100.696118,22.8012219 100.594098,24.1420814 100.417264,26.2627074 C100.269335,28.0307433 100.196221,29.4156766 100.196221,30.4158119 C100.196221,31.1820173 100.24043,31.8592276 100.328847,32.4482904 C100.357752,32.595768 100.328847,32.6839155 100.24043,32.7135806 C100.180918,32.7720631 100.078899,32.7720631 99.9318201,32.7135806 C99.181975,32.4737176 98.7653944,31.816849 98.6735767,30.7522982 C98.1932337,31.4413745 97.584516,31.7897267 96.8431726,31.7897267 C96.6365826,31.7897267 96.41639,31.7600617 96.1808944,31.7015792 C94.9745111,31.4074716 94.1507017,30.5573565 93.7094663,29.1495388 C93.3566481,27.9468337 93.2240224,26.0109784 93.3124395,23.3419731 C93.3711009,20.9077453 93.6210492,18.4133398 94.0622846,15.8621471 C92.9740741,15.949447 91.8850134,16.0969246 90.7968029,16.3020371 C90.6497244,16.3308546 90.5613073,16.3020371 90.5324017,16.2138896 C90.4737404,16.1554071 90.4737404,16.0816683 90.5324017,15.9935208 C90.6497244,15.3188532 91.0909598,14.9382932 91.8561078,14.8492981 C92.3857602,14.7916632 93.1798139,14.7331807 94.2391188,14.6738506 C94.591937,12.9431079 94.8860939,11.6819202 95.1215895,10.8894401 C95.268668,10.3614025 95.5917305,10.00966 96.0933275,9.83336492 Z M74.0585948,6.00572818 C74.1759175,5.97691072 74.2498818,5.97691072 74.2787874,6.00572818 C74.3382989,6.03539321 74.3519015,6.109132 74.3229959,6.22524942 C73.2934467,11.5352902 72.8071527,17.2411473 72.8666642,23.3419731 C72.8955698,25.1015333 72.9550813,26.4652772 73.0434984,27.4340524 C73.2203326,29.4877202 73.5578479,30.6166866 74.0585948,30.8217991 C74.411413,30.9692767 74.8228926,30.6166866 75.2938837,29.7657239 C75.5336301,29.3326145 75.7385198,28.8266138 75.9094028,28.2502646 C75.8260867,27.599329 75.7793277,26.8780449 75.7793277,26.0703085 C75.7793277,24.0166407 76.044579,22.0078942 76.5733813,20.0415263 C76.8088768,19.1617462 77.2203564,18.6777824 77.8095204,18.5896349 C77.9565989,18.5608174 78.0594688,18.5608174 78.1181301,18.5896349 C78.1478859,18.6192999 78.1478859,18.7074475 78.1181301,18.8540775 C77.7364063,20.8187502 77.5451193,22.9749742 77.5451193,25.3219021 C77.5451193,27.2289399 77.7058003,28.6215013 78.0305632,29.5012814 C78.2949643,30.235279 78.6928413,30.6014303 79.2216436,30.6014303 C80.045453,30.6014303 80.619314,29.1207214 80.9432266,26.1576084 L80.9432266,26.1576084 L81.5612962,20.6577114 C81.7083747,19.8075964 82.1640628,19.2931199 82.9292108,19.1176725 C83.0762893,19.088855 83.1791592,19.1032637 83.2378205,19.1617462 C83.2675763,19.1914113 83.2675763,19.2795588 83.2378205,19.4261888 C82.9139079,21.8010865 82.7532268,23.9573106 82.7532268,25.8940134 C82.7532268,28.9156089 83.1638562,30.4251352 83.9885158,30.4251352 C84.3124284,30.4251352 84.6575952,30.0369471 85.0257164,29.2597232 C85.2773651,28.7274478 85.4729029,28.1112627 85.6216817,27.4204912 C85.5876751,27.2831845 85.5434666,27.1119749 85.489056,26.9060148 C85.2535605,25.9669047 85.3275248,25.2930846 85.7092486,24.8811645 C85.8860829,24.705717 86.0331613,25.0133858 86.1513342,25.8058659 C86.9164822,21.8451603 87.974937,19.235485 89.3283988,17.9742974 C89.5936501,17.7098548 89.8733542,17.5776335 90.1675111,17.5776335 C90.5203294,17.5776335 90.8578447,17.7539286 91.1826075,18.1056711 C91.3585915,18.3107836 91.3288358,18.5014874 91.0941904,18.6777824 C90.6818606,19.0295249 90.4761208,19.6016363 90.4761208,20.3932689 C90.4761208,21.6256391 90.931809,23.2690819 91.8440354,25.3219021 C92.4323493,26.7009023 92.7265062,27.8595337 92.7265062,28.7969487 C92.7265062,29.7657239 92.4178965,30.5353196 91.8006771,31.107431 C91.1826075,31.6795423 90.4905736,31.9660218 89.7262758,31.9660218 C88.3014001,31.9660218 87.1417758,31.0514912 86.2482529,29.2275155 C85.9796009,30.8446835 85.2722641,31.6575054 84.1211414,31.6575054 C82.9139079,31.6575054 82.0467401,30.8217991 81.5170876,29.1495388 C81.1345136,30.4115741 80.5308969,31.2769454 79.7070875,31.745653 C79.3542692,31.9507655 78.9716952,32.0533217 78.5602156,32.0533217 C77.9123903,32.0533217 77.3827378,31.8041354 76.9712582,31.3057629 C76.7740201,31.0582718 76.6022869,30.7658593 76.4543582,30.4268304 C76.04968,31.5108754 75.4273596,32.0533217 74.5882472,32.0533217 C74.3816573,32.0533217 74.1759175,32.0245043 73.9701777,31.9660218 C72.5580545,31.4964667 71.6602808,30.1767965 71.2777068,28.0061637 C70.865377,30.6166866 69.8213751,31.921948 68.1440006,31.921948 C66.9376172,31.921948 66.0109379,31.3913677 65.3639627,30.3327498 C65.3061516,30.2395169 65.2534414,30.1411985 65.2015813,30.0428801 C65.1633239,30.1301801 65.122516,30.2140897 65.0774573,30.2937615 C64.6804305,30.9980941 64.1431266,31.3498367 63.4663957,31.3498367 C61.7303598,31.3498367 60.6863578,30.1912053 60.3326894,27.8730949 C60.1567054,26.6720849 60.0682883,24.5294219 60.0682883,21.449344 C60.0087768,21.039119 59.9059069,20.9950452 59.7596786,21.3171227 C58.2880439,24.5446782 57.3758174,28.0061637 57.0229991,31.7015792 C56.9932434,32.0245043 56.8606177,32.155878 56.6259723,32.0973955 C55.7137459,31.921948 55.228302,31.4523929 55.1696406,30.6895778 C55.021712,29.1936126 54.9928064,27.3018311 55.0812235,25.0133858 C55.1696406,22.5494929 55.3456246,20.628894 55.610876,19.2498938 C55.7579544,18.5167437 56.1405284,18.0615973 56.7577478,17.8853023 C56.9048263,17.8564848 57.0076962,17.8564848 57.0672077,17.8853023 C57.125869,17.9149673 57.1403218,18.0031148 57.1114162,18.1497448 C56.6990865,20.9374103 56.5664608,24.1047882 56.7143894,27.6535736 C57.3902702,24.4268657 58.2582881,21.8748253 59.3184432,19.9974526 C59.61175,19.469415 59.9212098,19.20582 60.2451225,19.20582 C60.7450192,19.20582 61.1718018,19.4999276 61.52462,20.0856001 C61.7898713,20.5263377 61.922497,21.185749 61.922497,22.0655291 C61.8629855,27.2577573 62.2600123,29.971684 63.1135774,30.205614 C63.525057,30.3234265 63.9373868,29.9793122 64.3497165,29.1715757 C64.4687396,28.9376458 64.5673586,28.6893071 64.6549256,28.4350353 C64.569059,27.979889 64.5257006,27.4950776 64.5257006,26.9780585 C64.5257006,26.1830356 64.6141177,25.3303778 64.7901017,24.4175424 C65.1718256,22.4749066 65.7754423,20.9602948 66.6001019,19.8711643 C67.4230611,18.7820338 68.2621734,18.2370448 69.1157385,18.2370448 C69.9097922,18.2370448 70.6009759,18.7362649 71.1892897,19.7338576 C71.5429581,14.4534818 72.1754805,10.1571376 73.0877069,6.84143452 C73.2050296,6.4312095 73.5289423,6.15320577 74.0585948,6.00572818 Z M69.6326385,19.5134888 C69.1276408,19.3973713 68.5401772,19.9542264 67.8719479,21.185749 C67.2028685,22.4181192 66.7497308,23.8700107 66.5125349,25.5422709 C66.4232677,26.1872735 66.3790591,26.7890498 66.3790591,27.3450573 C66.3790591,28.4613101 66.5346392,29.333462 66.8466496,29.9632083 C67.1586599,30.5946497 67.5080775,30.9252029 67.8940522,30.9531728 C68.5478287,31.0133504 69.216058,30.2785052 69.9004404,28.7537225 C70.6417838,27.0526448 70.9835499,25.1176372 70.9248885,22.9453092 C70.8942826,21.9485641 70.731051,21.1128578 70.4343436,20.4373426 C70.1962976,19.8813352 69.9293459,19.5728188 69.6326385,19.5134888 Z M124.293283,20.6136377 C123.645458,21.6408954 122.895613,23.9284931 122.042047,27.4781262 C122.512188,28.4748712 123.115805,29.2673514 123.852048,29.8530239 C124.499023,30.3810615 125.101789,30.645504 125.661198,30.645504 C126.279267,30.645504 126.587877,30.3090178 126.587877,29.6343502 C126.587877,29.0469826 126.19085,27.8298687 125.395946,25.9813134 C124.601893,24.1336057 124.204866,22.6673055 124.204866,21.5815653 C124.204866,21.2298228 124.233771,20.9077453 124.293283,20.6136377 Z M89.0197891,20.6136377 C88.3719638,21.6408954 87.6221187,23.9284931 86.7694037,27.4781262 C87.2395447,28.4748712 87.8423113,29.2673514 88.5785537,29.8530239 C89.2255289,30.3810615 89.8282955,30.645504 90.3877037,30.645504 C91.0057733,30.645504 91.314383,30.3090178 91.314383,29.6343502 C91.314383,29.0469826 90.9173562,27.8298687 90.1233026,25.9813134 C89.3283988,24.1336057 88.931372,22.6673055 88.931372,21.5815653 C88.931372,21.2298228 88.9602776,20.9077453 89.0197891,20.6136377 Z M117.497068,19.8211575 C117.026077,19.7050401 116.496425,20.1890039 115.908111,21.273049 C115.261136,22.4469367 114.863259,23.8115282 114.71618,25.3659759 C114.657519,26.0406434 114.643066,26.539016 114.672822,26.8619411 C115.731277,26.6271635 116.584842,25.8796047 117.231817,24.6175695 C117.761469,23.5911593 118.026721,22.491858 118.026721,21.3171227 C118.026721,20.4093727 117.849886,19.909305 117.497068,19.8211575 Z M37.1527001,7.8978487 C36.8279373,7.72155365 36.4462135,8.76322007 36.0049781,11.0211528 C35.5637427,13.2807807 35.2687357,15.7455211 35.1225074,18.4136789 C35.0629959,19.5875666 35.0340903,21.0538668 35.0340903,22.813427 C36.7403704,20.1156042 37.5939355,16.2294849 37.5939355,11.1542217 C37.5939355,9.12937132 37.4460069,8.04532629 37.1527001,7.8978487 Z M43.9489149,7.8978487 C43.6241521,7.72155365 43.2424282,8.76322007 42.8011929,11.0211528 C42.3599575,13.2807807 42.0649504,15.7455211 41.9187221,18.4136789 C41.8592106,19.5875666 41.830305,21.0538668 41.830305,22.813427 C43.5365851,20.1156042 44.3901503,16.2294849 44.3901503,11.1542217 C44.3901503,9.12937132 44.2422216,8.04532629 43.9489149,7.8978487 Z M30.1353576,16.9179679 C30.6939157,16.8298204 31.0178283,17.1374892 31.1062454,17.8418218 C31.1649068,18.2528944 31.0764897,18.6046369 30.8418443,18.897897 C30.6054985,19.1920046 30.3266446,19.367452 30.0027319,19.4259345 C29.6788193,19.484417 29.4144181,19.419154 29.2086783,19.2284502 C29.0020884,19.0377464 28.9281241,18.7512669 28.9876356,18.3698594 C29.1049583,17.4900793 29.4883824,17.0061155 30.1353576,16.9179679 Z M110.8657,16.9179679 C111.423408,16.8298204 111.747321,17.1374892 111.835738,17.8418218 C111.894399,18.2528944 111.805982,18.6046369 111.571337,18.897897 C111.335841,19.1920046 111.056137,19.367452 110.733075,19.4259345 C110.409162,19.484417 110.143911,19.419154 109.938171,19.2284502 C109.732431,19.0377464 109.658467,18.7512669 109.717978,18.3698594 C109.834451,17.4900793 110.217875,17.0061155 110.8657,16.9179679 Z" id="Combined-Shape" fill="#FFFFFF"></path>
    </g>
</svg>