<?xml version="1.0" encoding="UTF-8"?>
<svg width="128px" height="78px" viewBox="0 0 128 78" version="1.1" xmlns="http://www.w3.org/2000/svg" xmlns:xlink="http://www.w3.org/1999/xlink">
    <title>Logo Group 10</title>
    <g id="Logo-Group-10" stroke="none" stroke-width="1" fill="none" fill-rule="evenodd">
        <path d="M36.6457102,63.4435897 C37.0950448,63.4435897 37.5215319,63.5025302 37.9270754,63.6223126 C38.3345228,63.7401936 38.7305465,63.9113113 39.1170504,64.1356656 L39.1170504,64.1356656 L39.1170504,66.8488314 C38.8314564,66.5997601 38.517303,66.388715 38.180302,66.2118934 C37.8452051,66.0369731 37.4815487,65.9514143 37.0950448,65.9514143 C36.657134,65.9514143 36.3144212,66.073098 36.0650024,66.3164653 C35.8136797,66.5579314 35.6899223,66.9001667 35.6899223,67.3355662 C35.6899223,67.7234329 35.7946401,68.0542604 36.0097875,68.3375552 C36.2211271,68.6170474 36.4838736,68.8851318 36.7961231,69.1418083 C37.1083725,69.3984848 37.4472774,69.6513587 37.8166457,69.9080352 C38.18411,70.1647117 38.5249188,70.4594144 38.8371683,70.7978471 C39.1494177,71.1343786 39.4121642,71.5279492 39.6235038,71.9747565 C39.8367473,72.4234651 39.9414651,72.967239 39.9414651,73.604177 C39.9414651,74.2259046 39.8557869,74.8077047 39.6787186,75.3419721 C39.5054583,75.8800421 39.2446157,76.3439612 38.8923831,76.7375318 C38.5439584,77.1292012 38.1155674,77.4391143 37.609114,77.6634686 C37.1045646,77.8878229 36.5257607,78 35.8765103,78 C35.4766787,78 35.0597115,77.9410595 34.6218006,77.8212771 C34.1857938,77.703396 33.8011938,77.5265744 33.4775206,77.288911 L33.4775206,77.288911 L33.4775206,74.6308831 C33.8011938,74.8571387 34.1343869,75.0377629 34.4732918,75.174657 C34.8083887,75.3115512 35.1834689,75.3799982 35.5966282,75.3799982 C36.0459628,75.3799982 36.4248508,75.2431041 36.7390043,74.9693158 C37.0512537,74.6955275 37.2073784,74.3190687 37.2073784,73.8456431 C37.2073784,73.5718548 37.1559715,73.3398953 37.0550616,73.1459619 C36.9579597,72.9520285 36.8284904,72.7771083 36.6723657,72.621201 C36.5162409,72.4652938 36.3410766,72.3207945 36.1487766,72.1896042 C35.9545727,72.0603153 35.7584648,71.9253225 35.556645,71.7884283 C35.1587174,71.5127388 34.796965,71.2408518 34.4732918,70.9651622 C34.1458106,70.6913739 33.8716404,70.389066 33.6469731,70.0582385 C33.4223058,69.7255097 33.2490454,69.36236 33.1329039,68.9630854 C33.0129544,68.5657121 32.9539316,68.1093983 32.9539316,67.5979466 C32.9539316,67.0351596 33.0338979,66.5065961 33.1976385,66.0065522 C33.3594751,65.5084096 33.5936622,65.0692076 33.9001998,64.6870448 C34.2048334,64.3067833 34.5894333,64.0063767 35.0539996,63.7801211 C35.5147579,63.5557668 36.0459628,63.4435897 36.6457102,63.4435897 Z M100.98433,63.4435897 C101.433664,63.4435897 101.860151,63.5025302 102.265695,63.6223126 C102.671238,63.7401936 103.069166,63.9113113 103.45567,64.1356656 L103.45567,64.1356656 L103.45567,66.8488314 C103.168172,66.5997601 102.857826,66.388715 102.518921,66.2118934 C102.18192,66.0369731 101.818264,65.9514143 101.433664,65.9514143 C100.993849,65.9514143 100.65304,66.073098 100.401718,66.3164653 C100.152299,66.5579314 100.028542,66.9001667 100.028542,67.3355662 C100.028542,67.7234329 100.133259,68.0542604 100.346503,68.3375552 C100.557842,68.6170474 100.820589,68.8851318 101.132838,69.1418083 C101.445088,69.3984848 101.783993,69.6513587 102.153361,69.9080352 C102.522729,70.1647117 102.861634,70.4594144 103.175788,70.7978471 C103.488037,71.1343786 103.74888,71.5279492 103.962123,71.9747565 C104.173463,72.4234651 104.281988,72.967239 104.281988,73.604177 C104.281988,74.2259046 104.192502,74.8077047 104.017338,75.3419721 C103.844078,75.8800421 103.581331,76.3439612 103.231002,76.7375318 C102.882578,77.1292012 102.454187,77.4391143 101.947733,77.6634686 C101.44128,77.8878229 100.86438,78 100.21513,78 C99.815298,78 99.3964268,77.9410595 98.958516,77.8212771 C98.5244131,77.703396 98.1417171,77.5265744 97.8161399,77.288911 L97.8161399,77.288911 L97.8161399,74.6308831 C98.1417171,74.8571387 98.4711022,75.0377629 98.8100071,75.174657 C99.147008,75.3115512 99.5220882,75.3799982 99.9352475,75.3799982 C100.382678,75.3799982 100.76347,75.2431041 101.07572,74.9693158 C101.387969,74.6955275 101.544094,74.3190687 101.544094,73.8456431 C101.544094,73.5718548 101.494591,73.3398953 101.395585,73.1459619 C101.296579,72.9520285 101.165206,72.7771083 101.010985,72.621201 C100.85486,72.4652938 100.679696,72.3207945 100.487396,72.1896042 C100.293192,72.0603153 100.097084,71.9253225 99.8971683,71.7884283 C99.4954327,71.5127388 99.1355843,71.2408518 98.8100071,70.9651622 C98.4844299,70.6913739 98.2102597,70.389066 97.9855924,70.0582385 C97.7590211,69.7255097 97.5876647,69.36236 97.4715232,68.9630854 C97.3515737,68.5657121 97.2925509,68.1093983 97.2925509,67.5979466 C97.2925509,67.0351596 97.3725172,66.5065961 97.5362578,66.0065522 C97.6980944,65.5084096 97.9322815,65.0692076 98.2388191,64.6870448 C98.5434527,64.3067833 98.9280526,64.0063767 99.3907149,63.7801211 C99.8533772,63.5557668 100.382678,63.4435897 100.98433,63.4435897 Z M49.0865662,63.4445403 C50.1603997,63.4445403 51.0457412,63.7525521 51.7463985,64.3704771 C52.4451518,64.988402 52.9458933,65.7964577 53.2448151,66.7927429 L53.2448151,66.7927429 L50.52596,67.8403633 C50.4897848,67.6673443 50.4459937,67.4734109 50.3964908,67.2623658 C50.3488918,67.0494194 50.2689254,66.8516834 50.1623037,66.6710592 C50.0556819,66.490435 49.9185968,66.3383304 49.7510483,66.2128441 C49.5815958,66.0892591 49.3664484,66.0265159 49.1037019,66.0265159 C48.7914524,66.0151081 48.524898,66.0892591 48.2964228,66.2508702 C48.0736595,66.4124814 47.8832634,66.6311317 47.7271387,66.90492 C47.571014,67.1806096 47.4472566,67.492424 47.3501546,67.8403633 C47.2587645,68.1902039 47.1864141,68.5381432 47.1369111,68.8879837 C47.0874081,69.2378243 47.0550408,69.5743557 47.0417131,69.897578 C47.0302893,70.2246029 47.0245774,70.4964899 47.0245774,70.7227455 C47.0245774,71.0839939 47.0398091,71.5346038 47.0721764,72.0707725 C47.1026398,72.6069412 47.1864141,73.1240969 47.3254031,73.6222394 C47.4624883,74.120382 47.6757318,74.5462749 47.9708456,74.8942142 C48.2640555,75.2421535 48.667695,75.418975 49.1798603,75.418975 C49.528285,75.418975 49.813879,75.3163044 50.0328344,75.1090619 C50.2498858,74.9037207 50.4193383,74.6508468 50.5373838,74.3523415 C50.6573333,74.0519349 50.7353957,73.7382192 50.7715709,73.4073917 C50.8096501,73.0765642 50.8286897,72.7856641 50.8286897,72.5365929 L50.8286897,72.5365929 L49.0465831,72.5365929 L49.0465831,69.9165911 L53.6198952,69.9165911 L53.6198952,71.0212508 C53.6198952,71.7703659 53.5608724,72.5556059 53.4428269,73.3788721 C53.3228774,74.2021382 53.102018,74.955056 52.7764409,75.6338228 C52.4508637,76.3144909 51.9920093,76.8772779 51.3979738,77.3259865 C50.8058422,77.7765964 50.0347383,77.9990493 49.0865662,77.9990493 C48.4487396,77.9990493 47.8832634,77.8925761 47.3901378,77.681531 C46.8970121,77.4704859 46.4629092,77.1833884 46.0878291,76.8202387 C45.7127489,76.4589903 45.3985955,76.0426039 45.1415609,75.567277 C44.8845263,75.0938515 44.6750907,74.590005 44.5132541,74.0519349 C44.3514175,73.5157662 44.233372,72.970091 44.1572136,72.4149092 C44.0829591,71.8597274 44.0448799,71.319756 44.0448799,70.7968965 C44.0448799,69.9869395 44.1191344,69.1484629 44.2714512,68.2814666 C44.41996,67.4144704 44.6865145,66.6216252 45.0654025,65.9048322 C45.4461945,65.1880393 45.9640717,64.5967327 46.6133221,64.134715 C47.2625725,63.6745985 48.0850832,63.4445403 49.0865662,63.4445403 Z M114.509491,63.6687045 L114.509491,66.2868049 L111.680206,66.2868049 L111.680206,69.3574166 L114.174394,69.3574166 L114.174394,71.975517 L111.680206,71.975517 L111.680206,75.1564045 L114.54757,75.1564045 L114.54757,77.7764062 L108.889001,77.7764062 L108.889001,63.6687045 L114.509491,63.6687045 Z M2.80834113,63.6704157 C3.25767571,63.6704157 3.76793701,63.7008366 4.33722108,63.7616784 C4.90460119,63.8263229 5.44532585,63.9860327 5.95558716,64.2484131 C6.46965638,64.5107936 6.89995136,64.9119695 7.24837606,65.4557434 C7.59870471,65.9976161 7.77386904,66.7486325 7.77386904,67.7087928 C7.77386904,68.4959341 7.61584035,69.2051218 7.29787902,69.8344546 C6.97801372,70.4637874 6.46965638,70.9714365 5.76899907,71.3593032 L5.76899907,71.3593032 L8.22510758,77.7762161 L5.28348924,77.7762161 L2.82738073,71.2642379 L2.78930153,71.2642379 L2.78930153,77.7762161 L-7.10542736e-15,77.7762161 L-7.10542736e-15,63.6704157 Z M23.4922019,63.6692749 L23.4922019,69.9740106 L23.5283772,69.9740106 L25.8550164,63.6692749 L28.7014367,63.6692749 L26.0968193,70.1793518 L29.0384377,77.7769766 L26.0968193,77.7769766 L23.5283772,70.5900342 L23.4922019,70.5900342 L23.4922019,77.7769766 L20.7009965,77.7769766 L20.7009965,63.6692749 L23.4922019,63.6692749 Z M60.907112,63.6704157 C61.3564466,63.6704157 61.864804,63.7008366 62.435992,63.7616784 C63.0033721,63.8263229 63.5421928,63.9860327 64.0543581,64.2484131 C64.5665233,64.5107936 64.9987223,64.9119695 65.347147,65.4557434 C65.6974756,65.9976161 65.8726399,66.7486325 65.8726399,67.7087928 C65.8726399,68.4959341 65.7127073,69.2051218 65.394746,69.8344546 C65.0767846,70.4637874 64.5665233,70.9714365 63.86777,71.3593032 L63.86777,71.3593032 L66.3219745,77.7762161 L63.3822601,77.7762161 L60.9261516,71.2642379 L60.8880724,71.2642379 L60.8880724,77.7762161 L58.0987709,77.7762161 L58.0987709,63.6704157 Z M76.40192,63.6702255 L79.7928729,77.776026 L76.8131754,77.776026 L76.2895864,75.3993916 L73.4603017,75.3993916 L72.9538483,77.776026 L70.1816824,77.776026 L73.4603017,63.6702255 L76.40192,63.6702255 Z M121.911136,63.6696551 L125.397287,72.1818089 L125.433462,72.145684 C125.343976,71.8072513 125.284953,71.4574107 125.25449,71.0961623 C125.224026,70.7349139 125.206891,70.3736654 125.206891,70.012417 L125.206891,70.012417 L125.206891,63.6696551 L128,63.6696551 L128,77.7754556 L125.359207,77.7754556 L121.911136,69.2633018 L121.873056,69.301328 L122.00443,70.7216047 L122.023469,71.3015035 L122.023469,77.7754556 L119.23036,77.7754556 L119.23036,63.6696551 L121.911136,63.6696551 Z M15.7177617,63.6700354 L15.7177617,77.7758358 L12.9246523,77.7758358 L12.9246523,63.6700354 L15.7177617,63.6700354 Z M86.5949608,63.6696551 L90.0811117,72.1818089 L90.1172869,72.145684 C90.0278008,71.8072513 89.968778,71.4574107 89.9383147,71.0961623 C89.9059473,70.7349139 89.8907157,70.3736654 89.8907157,70.012417 L89.8907157,70.012417 L89.8907157,63.6696551 L92.6838251,63.6696551 L92.6838251,77.7754556 L90.0430325,77.7754556 L86.5949608,69.2633018 L86.5568816,69.301328 L86.6882548,70.7216047 L86.7072944,71.3015035 L86.7072944,77.7754556 L83.9141849,77.7754556 L83.9141849,63.6696551 L86.5949608,63.6696551 Z M74.8463846,67.2979203 L74.8102094,67.2979203 L74.5074797,69.4311873 L73.9115402,73.1919736 L75.876427,73.1919736 L75.164346,69.4311873 L74.8463846,67.2979203 Z M3.3674352,65.968701 L3.16438167,65.9709977 L2.78930153,65.9709977 L2.78930153,69.7298827 L3.27671531,69.7488958 C3.91454194,69.7488958 4.3695884,69.558765 4.64566262,69.1785035 C4.91983287,68.798242 5.05691799,68.3153099 5.05691799,67.7278059 C5.05691799,67.4787346 5.02645463,67.2429725 4.96362395,67.0167169 C4.90079327,66.7923626 4.7941715,66.6003305 4.64566262,66.4387194 C4.49524977,66.275207 4.29914188,66.1535233 4.05353103,66.071767 C3.8117281,65.9919121 3.51280636,65.9576886 3.16438167,65.9709977 Z M61.4671809,65.968701 L61.2650565,65.9709977 L60.8880724,65.9709977 L60.8880724,69.7298827 L61.3754862,69.7488958 C62.0133128,69.7488958 62.4683593,69.558765 62.7444335,69.1785035 C63.0186038,68.798242 63.1556889,68.3153099 63.1556889,67.7278059 C63.1556889,67.4787346 63.1252255,67.2429725 63.0623949,67.0167169 C62.9995642,66.7923626 62.8929424,66.6003305 62.7444335,66.4387194 C62.5940207,66.275207 62.3960088,66.1535233 62.1523019,66.071767 C61.910499,65.9919121 61.6115773,65.9576886 61.2650565,65.9709977 Z M73.066182,59.833387 C73.4545898,59.833387 73.778263,59.9740837 74.0410095,60.2535759 C74.303756,60.5349694 74.4332253,60.8676982 74.4332253,61.255565 C74.4332253,61.6301226 74.2961402,61.9495422 74.0238739,62.2195279 C73.7477997,62.4876123 73.4165106,62.6207038 73.0281027,62.6207038 C72.6549266,62.6207038 72.3312534,62.4876123 72.0551791,62.2195279 C71.7810089,61.9495422 71.6439238,61.6301226 71.6439238,61.255565 C71.6439238,60.8562904 71.7810089,60.5178577 72.0551791,60.2440694 C72.3312534,59.9702811 72.6682543,59.833387 73.066182,59.833387 Z M76.9654922,59.833387 C77.3519961,59.833387 77.6775733,59.9740837 77.9365119,60.2535759 C78.2011623,60.5349694 78.3306316,60.8676982 78.3306316,61.255565 C78.3306316,61.6301226 78.1935465,61.9495422 77.9174723,62.2195279 C77.643302,62.4876123 77.3139169,62.6207038 76.927413,62.6207038 C76.5523329,62.6207038 76.2267557,62.4876123 75.9506815,62.2195279 C75.6784152,61.9495422 75.5394261,61.6301226 75.5394261,61.255565 C75.5394261,60.8562904 75.6784152,60.5178577 75.9506815,60.2440694 C76.2267557,59.9702811 76.5656606,59.833387 76.9654922,59.833387 Z M65.48804,0 C84.4819458,0 99.8107285,15.2180653 99.9179056,34.1836078 C99.9421018,38.5832334 99.1386306,42.7908269 97.6554457,46.6599877 C97.2803656,47.6486676 96.8557825,48.6145318 96.3931202,49.5537778 L96.3931202,49.5537778 L91.4237843,45.6522947 L88.2613066,48.2152573 C88.004272,48.4244011 87.672983,48.5194665 87.3416939,48.4814403 L87.3416939,48.4814403 L82.6351046,47.9319624 C82.612257,47.9281598 82.5894095,47.9262585 82.566562,47.9243572 C82.3209511,47.9110481 82.0772443,47.9680873 81.8678086,48.0935736 C81.852577,48.1011788 81.8354413,48.1125867 81.8221136,48.1220932 L81.8221136,48.1220932 L77.8580687,50.6907596 C77.2868807,51.0596133 76.5195848,50.8980022 76.1521205,50.3238073 L76.1521205,50.3238073 L73.9701822,46.9413812 L71.9729281,48.6183345 L77.1726431,53.3373797 C77.1802589,53.3449849 77.1859708,53.3506889 77.1935866,53.3582941 C77.7990459,53.9286863 77.8371251,54.8793401 77.2754569,55.4953637 C76.7099808,56.1189926 75.744673,56.1665253 75.1182701,55.601837 C75.1163662,55.601837 75.1163662,55.601837 75.1163662,55.5999356 L75.1163662,55.5999356 L73.2352536,53.8925615 L70.1279907,55.423114 C70.1241828,55.4250154 70.1184709,55.428818 70.1127591,55.4307193 C69.6329611,55.6588762 69.0636771,55.5562056 68.6962128,55.1740428 L68.6962128,55.1740428 L68.686693,55.1645362 L67.0188239,53.3944189 C66.6665913,53.0217627 66.1201548,52.9076842 65.6479727,53.1035189 L65.6479727,53.1035189 L62.0818554,54.5865387 C61.623001,54.7766695 61.0937001,54.6720976 60.7395635,54.322257 L60.7395635,54.322257 L57.428577,51.032995 C57.0725364,50.6774505 56.5318118,50.5766812 56.0672455,50.7763185 L56.0672455,50.7763185 L52.2688451,52.430456 C51.8575897,52.6072776 51.3796958,52.5483371 51.0236552,52.2764501 L51.0236552,52.2764501 L47.8973528,49.8655922 C47.4461142,49.5138503 46.8120955,49.5214555 46.3665688,49.8808026 L46.3665688,49.8808026 L43.3354644,52.3334893 C42.8137793,52.7536783 42.0540992,52.6833299 41.6219003,52.1775821 C41.6123805,52.1680756 41.6066686,52.1604704 41.6009567,52.1509638 L41.6009567,52.1509638 L38.5888919,48.430105 L35.336928,50.9854623 C34.8323786,50.0785386 34.3697163,49.1449966 33.9489411,48.188639 C32.0906761,43.9639337 31.0606337,39.2924211 31.0606337,34.3813438 C31.0606337,15.3929856 46.4750946,0 65.48804,0 Z M53.9405221,36.379618 L40.9935935,46.544008 L42.0540992,47.8540088 C42.0598111,47.8578114 42.065523,47.8654167 42.0693309,47.8711206 C42.4977219,48.380671 43.2554981,48.4586246 43.7790871,48.0441396 C43.780991,48.0422383 43.784799,48.040337 43.7886069,48.0365344 L43.7886069,48.0365344 L46.3246817,45.9869249 C46.7664005,45.6275777 47.4004192,45.6218738 47.8535617,45.9698131 L47.8535617,45.9698131 L51.4596621,48.7552286 C51.8176066,49.0290169 52.2955006,49.0879574 52.7067559,48.9092345 L52.7067559,48.9092345 L56.7526711,47.1486237 C57.2153334,46.9470851 57.7541541,47.0497558 58.1120986,47.4053003 L58.1120986,47.4053003 L61.4478367,50.717378 C61.8019733,51.0691198 62.3312742,51.1717904 62.7901286,50.9816597 L62.7901286,50.9816597 L66.4228844,49.4701202 C66.8931626,49.2761869 67.4376951,49.3902653 67.7880238,49.7572177 L67.7880238,49.7572177 L67.7937357,49.7629216 L69.3606948,51.4246643 C69.3664067,51.4303683 69.3683107,51.4341709 69.3740225,51.4379735 C69.7471987,51.8201363 70.3221947,51.9209056 70.8019926,51.6851435 L70.8019926,51.6851435 L60.5910547,42.4162693 L57.9464541,40.0168193 L53.9405221,36.379618 Z M83.2005807,39.1897505 L76.3310927,44.9583175 L77.0622134,46.0933981 C77.4296777,46.6656916 78.1950696,46.8311054 78.7681616,46.4584491 L78.7681616,46.4584491 L81.0814731,44.9583175 C81.0928969,44.9526136 81.1062246,44.943107 81.1157444,44.9374031 C81.3308919,44.8081142 81.5784067,44.7491737 81.8240176,44.7624828 L81.8240176,44.7624828 L81.898272,44.7681867 L86.4182733,45.2986515 C86.7476584,45.338579 87.0789474,45.239711 87.337886,45.0324685 L87.337886,45.0324685 L88.9619639,43.7167637 L83.2005807,39.1897505 Z M65.48804,24.9717729 C60.3606755,24.9717729 56.1738673,29.0862024 56.0691495,34.1836078 L56.0691495,34.1836078 L60.240726,37.9691111 L62.4150484,39.9426683 L66.5809131,43.7262702 C71.2646549,43.1843976 74.9126424,39.2011583 74.9126424,34.3813438 C74.9126424,29.1926756 70.6839471,24.9717729 65.48804,24.9717729 Z M53.4626281,32.8545939 L47.4213627,32.8545939 C46.5779084,32.8545939 45.8905788,33.5390646 45.8905788,34.3813438 C45.8905788,35.2255243 46.5779084,35.9080937 47.4213627,35.9080937 L47.4213627,35.9080937 L49.5918772,35.9080937 L53.4626281,32.8717056 L53.4626281,32.8545939 Z M83.5566212,32.8545939 L79.0461398,32.8545939 C78.2007815,32.8545939 77.5172598,33.5390646 77.5172598,34.3813438 C77.5172598,35.2255243 78.2007815,35.9080937 79.0461398,35.9080937 L79.0461398,35.9080937 L83.5566212,35.9080937 C83.9793004,35.9080937 84.3619964,35.736976 84.6380706,35.4612865 C84.9160487,35.1855969 85.0855012,34.8015327 85.0855012,34.3813438 C85.0855012,33.5390646 84.4019795,32.8545939 83.5566212,32.8545939 L83.5566212,32.8545939 Z M79.3450615,20.5436277 C78.7472181,19.9466171 77.7781024,19.9466171 77.1840668,20.5436277 L77.1840668,20.5436277 L73.9911258,23.7283178 C73.3970902,24.3253283 73.3970902,25.2911926 73.9911258,25.8882031 L73.9911258,25.8882031 C74.5908732,26.4852137 75.5580849,26.4852137 76.1559284,25.8901044 L76.1559284,25.8901044 L79.3469655,22.7016117 C79.942905,22.1065025 79.942905,21.1406383 79.3469655,20.545529 L79.3469655,20.545529 Z M53.7958211,20.545529 C53.1979776,19.9466171 52.2307659,19.9466171 51.6329224,20.5436277 L51.6329224,20.5436277 C51.0369829,21.1406383 51.0369829,22.1065025 51.6310185,22.7016117 L51.6310185,22.7016117 L54.8220556,25.8882031 C55.1190734,26.1867084 55.5131931,26.3350104 55.9035049,26.3350104 C56.2938167,26.3350104 56.6841286,26.1867084 56.9849543,25.8882031 C57.5808938,25.2911926 57.5808938,24.3253283 56.9849543,23.7283178 L56.9849543,23.7283178 Z M65.48804,14.8130868 C64.6445857,14.8130868 63.9591601,15.4956562 63.9591601,16.3398368 L63.9591601,16.3398368 L63.9591601,20.842133 C63.9591601,21.2661246 64.1324204,21.6463861 64.4084946,21.9220756 C64.6845688,22.1996665 65.0653609,22.3707842 65.48804,22.3707842 C66.3333983,22.3707842 67.01692,21.6863135 67.01692,20.842133 L67.01692,20.842133 L67.01692,16.3398368 C67.01692,15.4956562 66.3333983,14.8130868 65.48804,14.8130868 Z" id="Combined-Shape" fill="#FFFFFF"></path>
    </g>
</svg>